<svg width="17" height="18" viewBox="0 0 17 18" fill="none" xmlns="http://www.w3.org/2000/svg">
<mask id="path-1-inside-1_2361_318" fill="white">
<path d="M8.43003 0C3.772 0 0 4.032 0 9C0 13.968 3.772 18 8.43003 18C13.0965 18 16.8769 13.968 16.8769 9C16.8769 4.032 13.0965 0 8.43003 0ZM14.2779 5.4H11.7885C11.5185 4.275 11.1303 3.195 10.624 2.196C12.1767 2.763 13.4678 3.915 14.2779 5.4ZM8.43847 1.836C9.13886 2.916 9.68736 4.113 10.0502 5.4H6.82672C7.18958 4.113 7.73808 2.916 8.43847 1.836ZM1.90709 10.8C1.77208 10.224 1.68769 9.621 1.68769 9C1.68769 8.379 1.77208 7.776 1.90709 7.2H4.7593C4.69179 7.794 4.64116 8.388 4.64116 9C4.64116 9.612 4.69179 10.206 4.7593 10.8H1.90709ZM2.59905 12.6H5.0884C5.35843 13.725 5.7466 14.805 6.25291 15.804C4.70023 15.237 3.40914 14.094 2.59905 12.6ZM5.0884 5.4H2.59905C3.40914 3.906 4.70023 2.763 6.25291 2.196C5.7466 3.195 5.35843 4.275 5.0884 5.4ZM8.43847 16.164C7.73808 15.084 7.18958 13.887 6.82672 12.6H10.0502C9.68736 13.887 9.13886 15.084 8.43847 16.164ZM10.4131 10.8H6.46387C6.38792 10.206 6.32885 9.612 6.32885 9C6.32885 8.388 6.38792 7.785 6.46387 7.2H10.4131C10.489 7.785 10.5481 8.388 10.5481 9C10.5481 9.612 10.489 10.206 10.4131 10.8ZM10.624 15.804C11.1303 14.805 11.5185 13.725 11.7885 12.6H14.2779C13.4678 14.085 12.1767 15.237 10.624 15.804ZM12.1176 10.8C12.1852 10.206 12.2358 9.612 12.2358 9C12.2358 8.388 12.1852 7.794 12.1176 7.2H14.9698C15.1049 7.776 15.1892 8.379 15.1892 9C15.1892 9.621 15.1049 10.224 14.9698 10.8H12.1176Z"/>
</mask>
<path d="M8.43003 0C3.772 0 0 4.032 0 9C0 13.968 3.772 18 8.43003 18C13.0965 18 16.8769 13.968 16.8769 9C16.8769 4.032 13.0965 0 8.43003 0ZM14.2779 5.4H11.7885C11.5185 4.275 11.1303 3.195 10.624 2.196C12.1767 2.763 13.4678 3.915 14.2779 5.4ZM8.43847 1.836C9.13886 2.916 9.68736 4.113 10.0502 5.4H6.82672C7.18958 4.113 7.73808 2.916 8.43847 1.836ZM1.90709 10.8C1.77208 10.224 1.68769 9.621 1.68769 9C1.68769 8.379 1.77208 7.776 1.90709 7.2H4.7593C4.69179 7.794 4.64116 8.388 4.64116 9C4.64116 9.612 4.69179 10.206 4.7593 10.8H1.90709ZM2.59905 12.6H5.0884C5.35843 13.725 5.7466 14.805 6.25291 15.804C4.70023 15.237 3.40914 14.094 2.59905 12.6ZM5.0884 5.4H2.59905C3.40914 3.906 4.70023 2.763 6.25291 2.196C5.7466 3.195 5.35843 4.275 5.0884 5.4ZM8.43847 16.164C7.73808 15.084 7.18958 13.887 6.82672 12.6H10.0502C9.68736 13.887 9.13886 15.084 8.43847 16.164ZM10.4131 10.8H6.46387C6.38792 10.206 6.32885 9.612 6.32885 9C6.32885 8.388 6.38792 7.785 6.46387 7.2H10.4131C10.489 7.785 10.5481 8.388 10.5481 9C10.5481 9.612 10.489 10.206 10.4131 10.8ZM10.624 15.804C11.1303 14.805 11.5185 13.725 11.7885 12.6H14.2779C13.4678 14.085 12.1767 15.237 10.624 15.804ZM12.1176 10.8C12.1852 10.206 12.2358 9.612 12.2358 9C12.2358 8.388 12.1852 7.794 12.1176 7.2H14.9698C15.1049 7.776 15.1892 8.379 15.1892 9C15.1892 9.621 15.1049 10.224 14.9698 10.8H12.1176Z" fill="#B2A2FF"/>
<path d="M14.2779 5.4V9.4H21.0164L17.7894 3.48442L14.2779 5.4ZM11.7885 5.4L7.89902 6.33359L8.63504 9.4H11.7885V5.4ZM10.624 2.196L11.9961 -1.56131L2.47285 -5.03898L7.0561 4.00428L10.624 2.196ZM8.43847 1.836L11.7945 -0.340442L8.43847 -5.51545L5.08242 -0.340442L8.43847 1.836ZM10.0502 5.4V9.4H15.3339L13.9001 4.31456L10.0502 5.4ZM6.82672 5.4L2.97681 4.31456L1.54303 9.4H6.82672V5.4ZM1.90709 10.8L-1.98735 11.7129L-1.26372 14.8H1.90709V10.8ZM1.90709 7.2V3.2H-1.26372L-1.98735 6.28714L1.90709 7.2ZM4.7593 7.2L8.73371 7.65169L9.23964 3.2H4.7593V7.2ZM4.7593 10.8V14.8H9.23964L8.73371 10.3483L4.7593 10.8ZM2.59905 12.6V8.6H-4.12007L-0.917288 14.5067L2.59905 12.6ZM5.0884 12.6L8.97792 11.6664L8.2419 8.6H5.0884V12.6ZM6.25291 15.804L4.88083 19.5613L14.4041 23.039L9.82084 13.9957L6.25291 15.804ZM5.0884 5.4V9.4H8.2419L8.97792 6.33359L5.0884 5.4ZM2.59905 5.4L-0.917288 3.49333L-4.12007 9.4H2.59905V5.4ZM6.25291 2.196L9.82084 4.00428L14.4041 -5.03898L4.88083 -1.56131L6.25291 2.196ZM8.43847 16.164L5.08242 18.3404L8.43847 23.5154L11.7945 18.3404L8.43847 16.164ZM6.82672 12.6V8.6H1.54303L2.97681 13.6854L6.82672 12.6ZM10.0502 12.6L13.9001 13.6854L15.3339 8.6H10.0502V12.6ZM10.4131 10.8V14.8H13.9342L14.3808 11.3073L10.4131 10.8ZM6.46387 10.8L2.49617 11.3073L2.94273 14.8H6.46387V10.8ZM6.46387 7.2V3.2H2.94959L2.49716 6.68503L6.46387 7.2ZM10.4131 7.2L14.3798 6.68503L13.9273 3.2H10.4131V7.2ZM10.624 15.804L7.0561 13.9957L2.47285 23.039L11.9961 19.5613L10.624 15.804ZM11.7885 12.6V8.6H8.63504L7.89902 11.6664L11.7885 12.6ZM14.2779 12.6L17.7894 14.5156L21.0164 8.6H14.2779V12.6ZM12.1176 10.8L8.14323 10.3483L7.6373 14.8H12.1176V10.8ZM12.1176 7.2V3.2H7.6373L8.14323 7.65169L12.1176 7.2ZM14.9698 7.2L18.8643 6.28714L18.1407 3.2H14.9698V7.2ZM14.9698 10.8V14.8H18.1407L18.8643 11.7129L14.9698 10.8ZM8.43003 -4C1.31899 -4 -4 2.07488 -4 9H4C4 5.98912 6.225 4 8.43003 4V-4ZM-4 9C-4 15.9251 1.31899 22 8.43003 22V14C6.225 14 4 12.0109 4 9H-4ZM8.43003 22C15.542 22 20.8769 15.9332 20.8769 9H12.8769C12.8769 12.0028 10.651 14 8.43003 14V22ZM20.8769 9C20.8769 2.06683 15.542 -4 8.43003 -4V4C10.651 4 12.8769 5.99717 12.8769 9H20.8769ZM14.2779 1.4H11.7885V9.4H14.2779V1.4ZM15.6781 4.46641C15.3412 3.06289 14.8502 1.68643 14.192 0.38772L7.0561 4.00428C7.41051 4.70357 7.69584 5.48711 7.89902 6.33359L15.6781 4.46641ZM9.25196 5.95331C9.83127 6.16487 10.3903 6.62621 10.7664 7.31558L17.7894 3.48442C16.5453 1.20379 14.5222 -0.638865 11.9961 -1.56131L9.25196 5.95331ZM5.08242 4.01244C5.567 4.75966 5.94769 5.58944 6.2003 6.48544L13.9001 4.31456C13.427 2.63656 12.7107 1.07234 11.7945 -0.340442L5.08242 4.01244ZM10.0502 1.4H6.82672V9.4H10.0502V1.4ZM10.6766 6.48544C10.9292 5.58944 11.3099 4.75966 11.7945 4.01244L5.08242 -0.340442C4.16621 1.07234 3.4499 2.63656 2.97681 4.31456L10.6766 6.48544ZM5.80154 9.88713C5.72304 9.55224 5.68769 9.25922 5.68769 9H-2.31231C-2.31231 9.98278 -2.17888 10.8958 -1.98735 11.7129L5.80154 9.88713ZM5.68769 9C5.68769 8.74078 5.72304 8.44776 5.80154 8.11286L-1.98735 6.28714C-2.17888 7.10424 -2.31231 8.01722 -2.31231 9H5.68769ZM1.90709 11.2H4.7593V3.2H1.90709V11.2ZM0.784882 6.74831C0.709668 7.41011 0.641158 8.17235 0.641158 9H8.64116C8.64116 8.60365 8.67391 8.17789 8.73371 7.65169L0.784882 6.74831ZM0.641158 9C0.641158 9.82765 0.709668 10.5899 0.784882 11.2517L8.73371 10.3483C8.67391 9.82211 8.64116 9.39635 8.64116 9H0.641158ZM4.7593 6.8H1.90709V14.8H4.7593V6.8ZM2.59905 16.6H5.0884V8.6H2.59905V16.6ZM1.19887 13.5336C1.53575 14.9371 2.02677 16.3136 2.68498 17.6123L9.82084 13.9957C9.46643 13.2964 9.1811 12.5129 8.97792 11.6664L1.19887 13.5336ZM7.62498 12.0467C7.03703 11.832 6.48541 11.3757 6.11539 10.6933L-0.917288 14.5067C0.332872 16.8123 2.36343 18.642 4.88083 19.5613L7.62498 12.0467ZM5.0884 1.4H2.59905V9.4H5.0884V1.4ZM6.11539 7.30667C6.48541 6.62425 7.03703 6.16802 7.62498 5.95331L4.88083 -1.56131C2.36343 -0.64202 0.332872 1.18775 -0.917288 3.49333L6.11539 7.30667ZM2.68498 0.38772C2.02677 1.68643 1.53575 3.06289 1.19887 4.46641L8.97792 6.33359C9.1811 5.48711 9.46643 4.70357 9.82084 4.00428L2.68498 0.38772ZM11.7945 13.9876C11.3099 13.2403 10.9292 12.4106 10.6766 11.5146L2.97681 13.6854C3.4499 15.3634 4.16621 16.9277 5.08242 18.3404L11.7945 13.9876ZM6.82672 16.6H10.0502V8.6H6.82672V16.6ZM6.2003 11.5146C5.94769 12.4106 5.567 13.2403 5.08242 13.9876L11.7945 18.3404C12.7107 16.9277 13.427 15.3634 13.9001 13.6854L6.2003 11.5146ZM10.4131 6.8H6.46387V14.8H10.4131V6.8ZM10.4316 10.2927C10.3638 9.76271 10.3289 9.36246 10.3289 9H2.32885C2.32885 9.86154 2.41204 10.6493 2.49617 11.3073L10.4316 10.2927ZM10.3289 9C10.3289 8.63529 10.3644 8.22478 10.4306 7.71497L2.49716 6.68503C2.41145 7.34522 2.32885 8.14071 2.32885 9H10.3289ZM6.46387 11.2H10.4131V3.2H6.46387V11.2ZM6.44636 7.71497C6.51254 8.22478 6.54809 8.63529 6.54809 9H14.5481C14.5481 8.14071 14.4655 7.34522 14.3798 6.68503L6.44636 7.71497ZM6.54809 9C6.54809 9.36246 6.51313 9.76271 6.44537 10.2927L14.3808 11.3073C14.4649 10.6493 14.5481 9.86154 14.5481 9H6.54809ZM14.192 17.6123C14.8502 16.3136 15.3412 14.9371 15.6781 13.5336L7.89902 11.6664C7.69584 12.5129 7.41051 13.2964 7.0561 13.9957L14.192 17.6123ZM11.7885 16.6H14.2779V8.6H11.7885V16.6ZM10.7664 10.6844C10.3903 11.3738 9.83127 11.8351 9.25196 12.0467L11.9961 19.5613C14.5222 18.6389 16.5453 16.7962 17.7894 14.5156L10.7664 10.6844ZM16.0921 11.2517C16.1673 10.5899 16.2358 9.82765 16.2358 9H8.23578C8.23578 9.39635 8.20303 9.82212 8.14323 10.3483L16.0921 11.2517ZM16.2358 9C16.2358 8.17235 16.1673 7.41012 16.0921 6.74831L8.14323 7.65169C8.20303 8.17788 8.23578 8.60365 8.23578 9H16.2358ZM12.1176 11.2H14.9698V3.2H12.1176V11.2ZM11.0754 8.11286C11.1539 8.44776 11.1892 8.74078 11.1892 9H19.1892C19.1892 8.01722 19.0558 7.10424 18.8643 6.28714L11.0754 8.11286ZM11.1892 9C11.1892 9.25922 11.1539 9.55224 11.0754 9.88713L18.8643 11.7129C19.0558 10.8958 19.1892 9.98278 19.1892 9H11.1892ZM14.9698 6.8H12.1176V14.8H14.9698V6.8Z" fill="#B2A2FF" mask="url(#path-1-inside-1_2361_318)"/>
</svg>
