<svg width="16" height="16" viewBox="0 0 16 16" fill="none" xmlns="http://www.w3.org/2000/svg">
<path d="M13.4428 10.0646C12.8566 9.66591 12.2243 9.32718 11.5552 9.05909C12.2561 8.22371 12.6774 7.14591 12.6774 5.97516C12.6774 5.21094 12.4979 4.48632 12.1783 3.84288C13.1929 4.91259 13.8184 6.36372 13.8184 7.96688C13.8184 8.70592 13.6855 9.41264 13.4428 10.0646ZM2 7.96688C2 6.36372 2.62554 4.91259 3.64014 3.84288C3.3205 4.48632 3.14099 5.21094 3.14099 5.97516C3.14099 7.14591 3.56227 8.22371 4.26326 9.05909C3.59414 9.32718 2.96182 9.66591 2.37563 10.0646C2.13293 9.41264 2 8.70592 2 7.96688Z" fill="#B2A2FF" stroke="#B2A2FF" stroke-width="4"/>
</svg>
